# xmcd
#
# Track frame offsets:
#	150
#	11432
#	23228
#	35233
#	46531
#	63934
#	77969
#	92157
#	110665
#	123129
#	134741
#	146864
#	164931
#	181156
#	189180
#	201162
#	217485
#	232026
#	244458
#	259782
#	276703
#	293079
#	308176
#	319566
#	330461
#
# Disc length: 4611 seconds
#
# Revision: 0
# Processed by: cddbd v1.4PL0 Copyright (c) Steve Scherf et al.
# Submitted via: audiograbber 1.80.04
#
DISCID=87120119
DTITLE=Various Artist - Blues Classics  Vol.1
DYEAR=1900
DGENRE=Blues
TTITLE0=John Lee Hooker - Boom Boom
TTITLE1=Lightnin Hopkins - Lightnin's Stomp
TTITLE2=Ray Charles - CC Rider
TTITLE3=Canned Heat - Can't Hold On
TTITLE4=Howlin Wolf - Dust My Broom
TTITLE5=Mississippi John Hurt - Casey Jones
TTITLE6=Leadbelly - The Boll Weevil
TTITLE7=Pinetops Perkins - Kidney Stew
TTITLE8=Jimmy Reed - Honest I Do
TTITLE9=Lightning Slim - G I  Blues
TTITLE10=Memphis Slim - Wish Me Well
TTITLE11=Big Joe Turner - Chains Of Love
TTITLE12=Muddy Waters - Corrina Corrina
TTITLE13=Billie Holiday - Miss Brown To You
TTITLE14=Big Joe Williams - Sugar Mama
TTITLE15=John Lee Hooker - Process
TTITLE16=Lightnin Hopkins - Santa Fe Blues
TTITLE17=Ray Charles - Rockin Chair Blues
TTITLE18=Howlin Wolf - Goin Down Slow
TTITLE19=Mississippi John Hurt - My Creole Belle
TTITLE20=Leadbelly - John Hardy
TTITLE21=Pinetops Perkins - Yonders Wall
TTITLE22=Jimmy Reed - I'm Nervous
TTITLE23=Lightning Slim - My Babe
TTITLE24=Big Joe Turner - Jump For Joy
EXTD=
EXTT0=
EXTT1=
EXTT2=
EXTT3=
EXTT4=
EXTT5=
EXTT6=
EXTT7=
EXTT8=
EXTT9=
EXTT10=
EXTT11=
EXTT12=
EXTT13=
EXTT14=
EXTT15=
EXTT16=
EXTT17=
EXTT18=
EXTT19=
EXTT20=
EXTT21=
EXTT22=
EXTT23=
EXTT24=
PLAYORDER=
